<svg width="200" height="200" viewBox="0 0 200 200" fill="none" xmlns="http://www.w3.org/2000/svg">
<path d="M99.5634 199.127C154.551 199.127 199.127 154.551 199.127 99.5634C199.127 44.5761 154.551 0 99.5634 0C44.5761 0 0 44.5761 0 99.5634C0 154.551 44.5761 199.127 99.5634 199.127Z" fill="#121212"/>
<path d="M95.5178 124.593V53.4087C95.5369 52.8449 95.4424 52.283 95.2398 51.7565C95.0372 51.2299 94.7308 50.7496 94.3387 50.3439C93.9466 49.9383 93.4769 49.6158 92.9575 49.3955C92.4381 49.1752 91.8798 49.0616 91.3156 49.0616C90.7515 49.0616 90.1931 49.1752 89.6737 49.3955C89.1544 49.6158 88.6847 49.9383 88.2926 50.3439C87.9005 50.7496 87.594 51.2299 87.3914 51.7565C87.1888 52.283 87.0943 52.8449 87.1134 53.4087V124.593C87.1107 124.602 87.1107 124.612 87.1134 124.622C87.1134 130.017 84.9702 135.191 81.1552 139.006C77.3403 142.821 72.1661 144.964 66.7709 144.964C61.3758 144.964 56.2016 142.821 52.3866 139.006C48.5717 135.191 46.4284 130.017 46.4284 124.622V53.4087C46.4476 52.8449 46.353 52.283 46.1504 51.7565C45.9479 51.2299 45.6414 50.7496 45.2493 50.3439C44.8572 49.9383 44.3875 49.6158 43.8681 49.3955C43.3488 49.1752 42.7904 49.0616 42.2262 49.0616C41.6621 49.0616 41.1037 49.1752 40.5844 49.3955C40.065 49.6158 39.5953 49.9383 39.2032 50.3439C38.8111 50.7496 38.5046 51.2299 38.302 51.7565C38.0995 52.283 38.0049 52.8449 38.024 53.4087V124.593C38.024 132.216 41.0522 139.526 46.4424 144.917C51.8326 150.307 59.1432 153.335 66.7661 153.335C74.389 153.335 81.6996 150.307 87.0898 144.917C92.48 139.526 95.5082 132.216 95.5082 124.593H95.5178Z" fill="#F2F2F2"/>
<path d="M132.35 45.7863C124.73 45.7952 117.425 48.8262 112.037 54.2145C106.648 59.6027 103.617 66.9082 103.608 74.5283V145.741C103.645 146.831 104.104 147.864 104.888 148.622C105.672 149.38 106.72 149.804 107.811 149.804C108.901 149.804 109.949 149.38 110.733 148.622C111.517 147.864 111.976 146.831 112.013 145.741V74.5283C112.015 74.5188 112.015 74.5089 112.013 74.4994C112.017 69.1042 114.164 63.9315 117.981 60.1193C121.799 56.3071 126.975 54.1675 132.37 54.1714C137.765 54.1752 142.938 56.3221 146.75 60.1398C150.562 63.9574 152.702 69.1332 152.698 74.5283V145.741C152.698 146.855 153.14 147.924 153.928 148.711C154.715 149.499 155.784 149.941 156.898 149.941C158.011 149.941 159.08 149.499 159.867 148.711C160.655 147.924 161.097 146.855 161.097 145.741V74.5283C161.088 66.9074 158.057 59.6012 152.667 54.2128C147.278 48.8244 139.971 45.7939 132.35 45.7863Z" fill="#F2F2F2"/>
</svg>
